<?xml version="1.0" standalone="no"?>
<!DOCTYPE svg PUBLIC "-//W3C//DTD SVG 20010904//EN"
 "http://www.w3.org/TR/2001/REC-SVG-20010904/DTD/svg10.dtd">
<svg version="1.0" xmlns="http://www.w3.org/2000/svg"
 width="480.000000pt" height="800.000000pt" viewBox="0 0 480.000000 800.000000"
 preserveAspectRatio="xMidYMid meet">

<g transform="translate(0.000000,800.000000) scale(0.100000,-0.100000)"
fill="#000000" stroke="none">
<path d="M2145 6762 c-69 -37 -115 -71 -115 -85 0 -7 4 -6 10 3 5 8 10 11 10
7 0 -4 15 3 33 16 17 14 59 39 91 56 32 17 50 31 40 30 -10 0 -41 -13 -69 -27z"/>
<path d="M2345 6733 c-16 -3 -34 -8 -40 -13 -5 -4 -37 -22 -69 -40 -32 -17
-77 -46 -99 -63 -207 -167 -343 -304 -424 -426 -85 -128 -106 -183 -155 -406
-6 -27 -17 -61 -24 -75 l-13 -25 -1 33 c-1 96 73 359 137 487 70 142 169 288
226 335 34 28 127 120 127 125 0 10 -35 -13 -60 -40 -14 -15 -52 -43 -85 -63
-33 -20 -88 -55 -121 -78 -34 -24 -73 -46 -87 -49 -14 -4 -28 -13 -30 -20 -3
-7 -26 -26 -50 -43 -45 -30 -67 -28 -67 6 0 7 -7 20 -15 28 -8 9 -15 24 -15
34 0 10 -4 22 -10 25 -5 3 -10 14 -10 23 0 12 3 13 12 4 21 -21 27 -13 23 28
-4 39 -4 39 20 28 14 -6 28 -8 32 -4 16 16 -83 156 -111 156 -27 0 -41 -52
-40 -147 0 -92 1 -95 31 -123 17 -16 32 -27 34 -25 2 2 5 -13 7 -33 1 -21 10
-43 20 -51 15 -12 16 -13 0 -8 -12 4 -15 2 -11 -9 3 -9 -3 -21 -16 -30 -11 -8
-21 -20 -21 -25 0 -5 -29 -47 -65 -92 -36 -45 -69 -86 -73 -92 -72 -99 -176
-260 -224 -345 -27 -49 -34 -59 -188 -315 -116 -191 -160 -275 -200 -386 -20
-52 -25 -80 -18 -87 15 -15 0 -55 -18 -48 -21 8 -42 -46 -59 -157 -8 -51 -26
-141 -40 -202 -40 -174 -42 -191 -54 -360 -47 -693 -47 -838 0 -1157 11 -73
22 -158 25 -188 3 -30 9 -69 15 -85 5 -17 13 -115 18 -217 8 -153 7 -196 -5
-240 -22 -83 -44 -291 -44 -421 0 -133 10 -167 63 -221 28 -28 38 -49 52 -111
20 -92 49 -129 138 -179 88 -49 108 -52 161 -26 l45 22 59 -21 c32 -12 78 -21
103 -21 l44 1 -24 17 c-13 9 -35 28 -50 42 -14 14 -28 25 -31 26 -5 0 -79 21
-115 31 -27 8 -161 149 -180 190 -9 18 -18 50 -21 70 -2 20 -11 47 -19 60 -8
12 -15 27 -15 33 0 6 -9 29 -19 50 -13 27 -20 65 -21 122 -1 46 -3 117 -5 158
-1 41 2 84 8 94 7 15 6 22 -7 31 -8 7 -13 15 -9 18 3 4 0 14 -7 22 -8 9 -13
38 -12 66 0 27 -2 47 -7 45 -4 -3 -7 24 -7 60 -1 35 -4 67 -7 71 -4 3 -7 19
-7 34 0 15 -5 31 -10 34 -6 4 -8 11 -5 16 4 5 7 61 9 124 2 91 0 115 -11 115
-7 0 -13 5 -13 10 0 16 33 26 38 12 2 -7 10 -12 18 -12 8 0 19 -10 24 -22 6
-16 9 -18 9 -6 1 9 6 18 11 20 7 2 5 16 -6 36 -15 31 -17 32 -33 18 -18 -17
-31 -12 -31 11 0 7 9 13 20 13 11 0 20 5 20 11 0 6 -9 8 -20 4 -25 -8 -27 10
-3 24 13 7 23 5 36 -7 17 -15 18 -15 14 8 -2 14 -10 38 -17 54 -13 25 -12 30
4 42 13 9 16 19 11 31 -5 10 -9 28 -10 39 0 12 -6 28 -13 37 -7 8 -10 21 -7
29 3 7 -3 23 -14 34 -13 14 -16 26 -10 35 7 11 9 11 9 1 0 -7 4 -10 10 -7 5 3
10 13 10 22 0 12 -7 14 -30 10 -26 -6 -30 -3 -30 14 0 15 5 19 15 15 8 -3 15
-1 15 4 0 6 -7 10 -15 10 -8 0 -15 7 -15 16 0 8 5 12 10 9 6 -3 10 -2 10 4 0
5 -10 11 -22 13 -21 3 -21 4 -4 20 10 10 31 18 47 18 16 0 29 3 30 8 0 4 2 41
4 82 8 151 15 217 30 300 9 47 20 109 24 138 11 73 24 83 45 32 9 -22 16 -46
16 -53 0 -6 13 -39 29 -72 16 -33 41 -86 56 -119 20 -41 30 -54 36 -45 6 10 9
6 9 -13 0 -15 4 -30 10 -33 5 -3 10 -17 10 -31 0 -14 7 -27 15 -30 8 -4 15
-12 15 -19 0 -20 21 -30 31 -14 7 11 9 11 9 1 0 -7 -6 -15 -14 -18 -12 -5 -12
-8 2 -24 8 -11 19 -17 24 -14 5 3 7 1 6 -4 -4 -12 92 -132 105 -132 5 0 4 7
-3 15 -7 8 -8 15 -2 15 5 0 15 -6 21 -14 9 -11 9 -15 -1 -19 -20 -7 72 -98
180 -179 66 -49 92 -75 93 -91 2 -73 -3 -466 -7 -594 -5 -143 -4 -156 20 -225
19 -53 30 -119 41 -242 8 -93 26 -241 39 -330 46 -302 32 -387 -69 -439 -37
-18 -48 -67 -15 -67 10 0 21 4 24 9 12 19 58 22 77 5 15 -14 22 -15 31 -6 16
16 43 15 58 -3 10 -12 10 -21 -1 -47 -7 -18 -14 -38 -15 -45 -1 -6 -12 -22
-24 -35 -13 -13 -20 -17 -16 -10 4 7 1 12 -8 12 -10 0 -13 6 -9 16 5 14 2 16
-18 11 -14 -3 -32 0 -43 8 -10 8 -24 11 -30 7 -6 -4 -15 -7 -21 -7 -21 0 -34
-49 -25 -90 29 -125 -8 -222 -83 -217 -44 4 -53 16 -33 47 41 63 -35 213 -103
203 -29 -4 -29 -4 -13 18 10 12 20 20 25 17 4 -2 7 0 7 6 0 6 7 8 15 5 8 -4
15 -1 15 5 0 6 -7 11 -15 11 -8 0 -15 6 -15 14 0 18 -38 28 -62 15 -10 -5 -18
-6 -18 -2 0 4 -7 -2 -15 -13 -8 -10 -15 -33 -15 -50 0 -17 -11 -53 -25 -80
-14 -27 -25 -54 -25 -61 0 -6 -9 -15 -20 -18 -11 -4 -18 -10 -16 -14 8 -12 -8
-29 -29 -31 -41 -5 -48 -1 -40 23 16 52 22 96 14 109 -6 8 -9 9 -9 1 0 -6 -9
-9 -21 -6 -19 5 -21 3 -15 -23 5 -24 1 -36 -25 -64 -17 -19 -43 -51 -58 -70
-14 -19 -34 -41 -43 -48 -10 -7 -18 -20 -18 -28 0 -8 -4 -14 -10 -14 -14 0
-12 28 3 33 6 2 9 8 4 12 -4 5 -14 0 -21 -11 -17 -22 -2 -49 21 -39 8 3 24 -2
36 -10 18 -13 19 -15 4 -15 -23 0 -31 -23 -18 -49 10 -17 8 -20 -17 -24 -15
-2 5 -5 43 -7 l70 -2 -50 -13 -50 -13 40 -2 c32 -1 36 -3 20 -10 -11 -5 -14
-9 -7 -9 7 -1 18 -15 24 -32 7 -20 13 -27 18 -19 5 8 13 9 21 4 8 -5 18 -9 24
-9 5 0 12 -11 15 -24 6 -25 44 -39 55 -20 9 13 35 -8 36 -30 0 -10 2 -11 6 -3
6 14 43 17 43 2 0 -19 41 -32 82 -25 30 5 37 10 27 17 -11 8 -10 9 4 4 22 -7
244 21 276 35 20 8 22 12 11 19 -12 7 -11 10 5 15 48 16 167 79 172 91 3 8 13
14 22 14 22 1 60 30 40 31 -8 0 -2 5 14 11 15 5 27 14 27 19 0 5 11 9 25 9 14
0 25 4 25 9 0 4 11 7 25 6 14 -2 23 0 20 5 -3 4 -2 16 2 26 6 16 7 16 14 -2 6
-18 8 -17 17 6 9 22 11 22 12 5 1 -18 1 -19 11 -2 5 9 15 17 21 17 16 0 68 47
60 54 -3 4 0 5 8 2 10 -4 23 10 41 44 23 42 25 51 12 58 -12 7 -12 10 2 22 14
12 14 15 -1 31 -23 25 -27 24 -48 -12 -11 -19 -23 -28 -32 -25 -24 9 -89 -39
-139 -104 -40 -52 -50 -60 -76 -58 -45 3 -52 19 -29 63 25 49 25 64 -3 95 -34
38 -77 62 -102 57 -22 -4 -23 -1 -20 37 6 57 33 90 78 94 33 3 37 6 37 32 0
15 -6 30 -14 33 -17 7 -9 58 10 70 19 11 17 30 -6 55 -11 12 -20 26 -20 32 0
6 -4 8 -10 5 -5 -3 -10 -1 -10 4 0 7 -15 9 -37 6 l-37 -5 37 31 c20 17 37 37
37 45 0 9 12 14 36 14 l36 0 -24 32 c-28 38 -39 62 -44 98 -2 14 -4 31 -5 38
-1 6 -6 12 -11 12 -4 0 -8 9 -8 19 0 11 -5 23 -10 26 -8 5 -8 11 0 20 7 9 6
16 -5 25 -9 7 -14 18 -12 24 2 6 -4 26 -15 44 -15 27 -16 36 -5 54 9 16 9 22
0 25 -7 3 -13 17 -13 32 0 15 -6 33 -12 40 -10 11 -10 14 0 18 14 6 16 33 2
33 -5 0 -10 13 -10 30 0 19 5 29 13 27 8 -1 11 8 9 28 -1 17 1 25 5 19 4 -6
16 -13 25 -17 12 -4 16 -1 15 15 -1 17 -6 19 -34 15 -22 -4 -33 -2 -33 6 1 15
30 55 30 41 1 -5 8 7 16 26 15 35 16 57 10 200 -1 41 1 80 6 87 6 7 5 34 -2
68 -8 40 -9 64 -1 83 15 41 16 65 3 89 -10 18 -9 24 1 30 21 12 30 45 15 54
-10 7 -10 11 0 21 15 15 16 60 1 75 -12 12 -1 66 11 58 5 -3 11 -1 15 5 4 6
-13 19 -37 30 l-43 20 40 0 c22 0 73 -9 113 -20 190 -53 222 -60 287 -69 39
-5 90 -14 115 -20 76 -16 366 -24 495 -12 128 11 393 62 456 87 68 28 76 20
86 -86 2 -30 9 -60 14 -66 5 -6 7 -19 3 -28 -4 -9 -1 -16 6 -16 9 0 9 -4 2
-12 -12 -16 3 -62 17 -53 14 8 35 -36 32 -67 -2 -19 2 -28 12 -28 22 0 26 21
10 58 -11 27 -11 36 1 55 11 17 14 51 11 153 -3 93 -1 136 8 147 7 9 47 34 89
56 129 67 223 143 358 287 30 32 64 72 75 88 11 16 28 37 38 48 9 10 17 31 17
47 0 39 9 61 25 61 7 0 16 12 20 28 3 15 13 34 21 44 10 11 12 18 5 23 -6 3
-11 11 -11 17 0 6 6 5 16 -3 13 -11 14 -9 9 14 -6 21 -4 27 10 27 10 0 15 6
12 13 -2 6 -10 29 -18 50 -15 41 -29 50 -22 13 3 -13 -1 -34 -7 -46 -11 -21
-13 -22 -22 -6 -7 12 -6 22 3 33 11 13 10 17 -4 28 -9 6 -13 16 -9 20 4 4 0 6
-8 3 -8 -3 -15 -10 -15 -16 0 -6 -10 -19 -22 -27 -21 -15 -23 -15 -23 -1 0 9
-4 16 -10 16 -5 0 -7 -6 -4 -14 7 -18 -12 -56 -39 -77 -23 -19 -14 -43 14 -34
21 7 25 -5 8 -22 -12 -12 -39 -6 -52 11 -10 14 -38 -21 -31 -39 3 -8 -7 -15
-30 -19 -41 -8 -44 -18 -16 -46 11 -11 20 -24 20 -30 0 -14 -17 -13 -22 2 -3
8 -11 5 -24 -8 -11 -11 -18 -26 -16 -32 2 -7 -4 -12 -13 -12 -12 0 -15 5 -10
18 15 35 17 52 8 52 -6 0 -14 -15 -19 -32 -11 -37 -49 -52 -60 -24 -3 9 -10
16 -16 16 -5 0 -7 -4 -3 -9 3 -6 -3 -15 -14 -20 -25 -14 -31 -14 -31 -1 0 6 7
10 15 10 8 0 15 7 15 15 0 9 -9 15 -24 15 -14 0 -28 5 -31 10 -10 16 -53 6
-70 -15 -12 -17 -14 -17 -15 -4 0 18 -62 34 -68 18 -2 -5 -9 -6 -15 -2 -7 4
-6 -1 2 -10 15 -18 26 -23 16 -7 -8 12 -3 13 29 0 14 -5 26 -16 26 -25 0 -12
-11 -15 -54 -13 -37 1 -52 6 -49 14 2 7 -2 15 -9 20 -7 4 -10 4 -6 -1 11 -11
-10 -45 -28 -45 -9 0 -18 9 -21 20 -7 27 -43 27 -43 0 0 -11 -4 -20 -10 -20
-5 0 -10 5 -10 11 0 5 -5 7 -10 4 -5 -3 -10 -2 -10 4 0 5 5 13 11 16 7 5 3 14
-10 26 -26 24 -28 24 -35 -6 -8 -30 -27 -24 -44 14 l-13 29 -122 -4 c-107 -4
-489 16 -587 31 -19 3 -84 7 -145 10 -60 3 -117 8 -125 12 -8 3 -27 7 -42 8
-60 6 -142 59 -193 126 -39 51 -75 110 -75 123 0 8 9 20 19 26 16 8 26 3 58
-35 39 -44 40 -44 94 -39 51 6 57 4 112 -36 49 -35 58 -46 53 -65 -6 -25 9
-36 47 -34 l22 0 -22 11 c-31 15 -29 21 16 51 65 43 132 54 213 34 7 -2 10 -2
6 0 -36 20 55 24 103 5 15 -6 31 -8 35 -4 5 4 0 -3 -10 -15 -14 -16 -25 -21
-42 -17 -30 8 -31 -7 -3 -24 17 -11 25 -11 45 3 13 8 24 19 24 24 0 16 101 34
159 28 34 -4 80 -18 116 -37 39 -20 61 -27 64 -19 4 14 26 36 65 67 27 21 97
32 96 15 -1 -11 -105 -93 -119 -93 -6 0 -11 -4 -11 -10 0 -10 16 -6 65 15 32
14 125 101 125 116 0 5 16 9 36 9 45 0 43 4 -34 119 -111 164 -228 265 -382
328 -157 65 -270 78 -417 47 -41 -8 -81 -13 -89 -10 -9 4 -14 -2 -14 -16 0
-12 -3 -18 -7 -15 -3 4 -12 2 -19 -4 -15 -13 -70 -5 -67 9 2 6 -4 9 -12 6 -11
-4 -15 1 -15 17 -1 23 -1 23 -15 5 -15 -19 -15 -19 -16 5 l-1 24 -7 -25 c-4
-14 -3 -33 3 -42 6 -9 7 -20 3 -24 -9 -10 -57 43 -57 63 0 15 -1 15 -12 0 -12
-15 -16 -15 -41 -2 -16 8 -37 25 -47 37 -11 13 -19 17 -20 10 0 -19 29 -72 40
-72 6 0 10 -11 10 -25 0 -23 -2 -24 -20 -13 -11 7 -18 19 -15 25 2 7 0 13 -5
13 -6 0 -10 7 -10 15 0 8 -4 15 -10 15 -5 0 -10 10 -10 23 0 23 -17 47 -32 47
-5 0 -6 -11 -2 -25 4 -15 2 -25 -5 -25 -6 0 -11 9 -11 21 0 15 -5 19 -15 15
-8 -3 -15 -1 -15 5 0 5 7 12 15 15 11 4 14 16 10 42 -3 25 1 39 12 47 11 8 14
19 9 31 -5 14 -9 15 -15 5 -13 -20 -50 -4 -57 25 -6 23 -36 48 -59 49 -11 1
-8 35 6 51 7 9 4 28 -17 87 -11 29 -24 19 -17 -15 5 -24 3 -29 -7 -23 -9 6
-11 4 -6 -4 5 -7 14 -10 22 -7 8 3 14 -1 14 -8 0 -13 -57 -28 -73 -19 -4 2 1
15 12 29 18 23 19 70 1 59 -4 -3 -10 2 -14 10 -3 8 -11 12 -18 10 -7 -3 -19 4
-26 16 -12 19 -11 20 7 14 16 -5 20 -3 15 9 -3 9 -1 16 5 16 6 0 11 -4 11 -10
0 -5 6 -10 14 -10 8 0 16 -7 18 -17 2 -10 13 -17 30 -17 26 -2 26 -1 10 17
-15 17 -17 17 -22 1 -6 -15 -8 -15 -13 5 -3 14 0 29 8 37 11 12 17 10 35 -14
l21 -27 -6 25 c-4 14 -7 33 -6 43 0 9 -4 15 -10 12 -5 -4 -9 1 -9 10 0 9 -9
25 -20 37 -16 18 -20 19 -20 5 0 -8 5 -19 10 -22 6 -3 10 -15 10 -26 0 -11 -4
-17 -10 -14 -5 3 -10 -3 -10 -14 0 -13 -7 -21 -16 -21 -10 0 -14 6 -11 14 3 8
-1 17 -9 20 -8 3 -13 2 -10 -3 3 -5 -1 -15 -10 -22 -28 -23 -50 21 -44 89 1
12 -5 25 -14 28 -8 3 -20 22 -27 42 -6 21 -21 47 -32 59 -24 26 -16 44 8 19
25 -25 65 -21 66 7 2 36 -2 52 -17 60 -8 4 -14 15 -14 22 0 8 -4 15 -10 15
-13 0 -13 33 1 47 7 7 6 21 -5 48 -20 46 -20 55 -2 55 15 0 20 11 31 70 6 32
6 33 -7 16 -14 -18 -15 -18 -21 5 -3 13 -4 34 0 48 4 17 2 22 -6 17 -15 -10
-27 22 -13 36 9 9 18 9 34 1 13 -6 31 -14 41 -17 9 -3 17 -13 18 -23 0 -10 9
-36 20 -58 l19 -40 -6 65 c-5 62 3 130 27 230 5 25 11 54 13 65 11 84 160 325
270 438 150 153 373 257 550 257 96 0 173 -20 290 -74 203 -94 325 -212 452
-435 58 -102 56 -72 -2 35 -52 96 -100 160 -188 252 -61 63 -169 146 -213 163
-13 5 -23 12 -23 17 0 5 -19 15 -42 22 -24 7 -45 16 -49 21 -8 14 -106 29
-191 29 -305 0 -606 -198 -792 -522 -15 -27 -29 -48 -31 -48 -7 0 35 102 58
140 107 178 201 285 335 383 105 75 171 102 290 117 157 20 293 -5 445 -81
124 -63 177 -108 346 -299 61 -68 132 -239 171 -408 18 -77 31 -50 19 38 -24
168 -89 316 -211 478 -74 99 -206 236 -261 274 -120 82 -152 99 -232 126 -84
28 -187 54 -203 51 -4 -1 -20 -4 -37 -6z m-985 -1355 c0 -18 -2 -20 -9 -8 -6
8 -7 18 -5 22 9 14 14 9 14 -14z m64 -23 c-4 -8 -13 -15 -21 -15 -13 0 -13 3
-3 15 7 8 16 15 21 15 5 0 6 -7 3 -15z m-739 -557 c6 -4 0 -8 -12 -8 -16 0
-21 4 -16 15 3 9 8 12 12 8 3 -4 11 -11 16 -15z m825 -28 c0 -5 -2 -10 -4 -10
-3 0 -8 5 -11 10 -3 6 -1 10 4 10 6 0 11 -4 11 -10z m-838 -17 c2 -10 1 -34
-4 -54 -4 -20 -4 -50 1 -66 11 -36 2 -128 -11 -115 -11 11 -23 192 -14 226 7
30 23 34 28 9z m912 -114 c-3 -6 0 -16 7 -21 11 -7 11 -11 2 -15 -7 -2 -13
-10 -13 -16 0 -8 4 -7 12 1 7 7 18 12 25 12 18 0 16 -35 -3 -51 -13 -10 -17
-10 -25 2 -8 12 -10 12 -19 -1 -7 -11 -10 -1 -10 36 0 28 3 54 7 57 11 11 25
8 17 -4z m141 -119 c3 -5 -1 -10 -9 -10 -9 0 -16 5 -16 10 0 6 4 10 9 10 6 0
13 -4 16 -10z m-1042 -95 c2 -16 6 -37 10 -45 11 -28 14 -70 6 -75 -11 -7 -17
19 -25 95 -6 64 0 83 9 25z m1007 -59 c0 -12 -5 -7 -19 24 -11 24 -11 24 3 6
9 -11 16 -24 16 -30z m135 -65 c3 -5 1 -12 -5 -16 -5 -3 -10 1 -10 9 0 18 6
21 15 7z m-1060 -270 c3 -5 1 -12 -5 -16 -5 -3 -10 1 -10 9 0 18 6 21 15 7z
m3119 -246 c-4 -8 -2 -15 4 -15 14 0 3 -36 -14 -51 -20 -17 -29 -3 -17 24 6
12 14 30 17 40 3 9 8 17 10 17 3 0 3 -7 0 -15z m-54 -65 c0 -5 -5 -10 -11 -10
-5 0 -7 5 -4 10 3 6 8 10 11 10 2 0 4 -4 4 -10z m92 -52 c-7 -7 -12 -8 -12 -2
0 6 3 14 7 17 3 4 9 5 12 2 2 -3 -1 -11 -7 -17z m-175 -20 c-3 -7 -5 -2 -5 12
0 14 2 19 5 13 2 -7 2 -19 0 -25z m103 8 c0 -3 -4 -8 -10 -11 -5 -3 -10 -1
-10 4 0 6 5 11 10 11 6 0 10 -2 10 -4z m-72 -38 c-2 -14 -11 -22 -28 -24 -14
-1 -19 0 -12 2 6 3 12 12 12 19 0 11 10 20 28 24 2 1 2 -9 0 -21z m-2791 -70
c-2 -13 -4 -5 -4 17 -1 22 1 32 4 23 2 -10 2 -28 0 -40z m-17 32 c0 -5 -4 -10
-10 -10 -5 0 -10 5 -10 10 0 6 5 10 10 10 6 0 10 -4 10 -10z m2858 -10 c-7
-10 -14 -17 -17 -15 -4 4 18 35 25 35 2 0 -1 -9 -8 -20z m-521 -96 c-3 -3 -12
-4 -19 -1 -8 3 -5 6 6 6 11 1 17 -2 13 -5z m-2236 -31 c13 -15 12 -15 -8 -4
-24 12 -29 21 -14 21 5 0 15 -7 22 -17z m2194 -3 c3 -5 1 -10 -4 -10 -6 0 -11
5 -11 10 0 6 2 10 4 10 3 0 8 -4 11 -10z m50 -28 c-7 -8 -35 7 -35 18 0 6 7 6
20 -2 10 -7 17 -14 15 -16z m-2085 -133 c0 -16 -16 -10 -38 16 -30 35 -27 40
8 15 17 -12 30 -26 30 -31z m-593 -145 c-3 -3 -12 -4 -19 -1 -8 3 -5 6 6 6 11
1 17 -2 13 -5z m20 -72 c-10 -2 -14 -8 -10 -15 4 -7 0 -6 -10 2 -22 17 -13 31
16 23 18 -5 19 -7 4 -10z m-17 -58 c0 -8 -4 -12 -10 -9 -5 3 -10 10 -10 16 0
5 5 9 10 9 6 0 10 -7 10 -16z m953 -15 c-3 -10 -12 -19 -19 -19 -15 0 -17 10
-8 34 8 21 33 9 27 -15z m2 -119 c0 -7 -6 -15 -12 -17 -8 -3 -13 4 -13 17 0
13 5 20 13 18 6 -3 12 -11 12 -18z m-40 -180 c3 -5 -1 -10 -9 -10 -9 0 -16 5
-16 10 0 6 4 10 9 10 6 0 13 -4 16 -10z m15 -99 c0 -6 -4 -13 -10 -16 -5 -3
-10 1 -10 9 0 9 5 16 10 16 6 0 10 -4 10 -9z m-45 -169 c-3 -4 -10 0 -15 8 -6
9 -5 17 3 22 13 8 24 -19 12 -30z m37 -54 c3 -7 1 -17 -4 -23 -5 -5 -17 -21
-28 -33 -21 -26 -43 -22 -33 6 6 18 44 60 55 61 3 1 8 -5 10 -11z m16 -312 c3
-12 -1 -17 -10 -14 -7 3 -15 13 -16 22 -3 12 1 17 10 14 7 -3 15 -13 16 -22z
m-928 -327 c0 -5 4 -8 9 -5 15 10 28 -16 50 -99 18 -64 33 -94 76 -150 30 -38
52 -71 49 -74 -2 -3 -10 1 -16 7 -7 7 -20 12 -30 12 -10 0 -18 5 -18 10 0 6
-10 10 -22 10 -45 1 -65 30 -78 110 -6 41 -17 88 -25 104 -17 33 -20 86 -5 86
6 0 10 -5 10 -11z m926 -456 c-10 -10 -19 5 -10 18 6 11 8 11 12 0 2 -7 1 -15
-2 -18z m-336 -289 c0 -9 5 -12 12 -8 8 5 9 0 3 -17 -4 -13 -7 -43 -6 -67 2
-36 -5 -52 -41 -102 -24 -32 -46 -59 -50 -59 -4 -1 -15 16 -24 37 -37 87 11
232 77 232 20 0 29 -5 29 -16z m462 -61 c11 -10 15 -25 12 -50 -6 -47 -73
-158 -86 -145 -6 6 -13 49 -17 96 -6 76 -4 88 12 105 21 20 51 18 79 -6z m278
-19 c0 -9 -23 -29 -57 -49 -17 -10 -36 -28 -42 -39 -6 -14 -10 -16 -10 -6 -1
21 8 31 51 60 21 14 38 28 38 33 0 4 5 7 10 7 6 0 10 -3 10 -6z m-411 -62 c1
-7 -3 -10 -9 -7 -5 3 -10 18 -9 33 0 24 1 25 9 7 5 -11 9 -26 9 -33z m-434
-140 c-3 -3 -11 0 -18 7 -9 10 -8 11 6 5 10 -3 15 -9 12 -12z m665 -2 c0 -5
-4 -10 -10 -10 -5 0 -10 5 -10 10 0 6 5 10 10 10 6 0 10 -4 10 -10z"/>
<path d="M3354 6711 c-26 -25 -44 -48 -81 -102 -30 -43 -30 -46 -13 -57 16
-10 21 -8 29 6 5 9 12 14 16 10 4 -3 16 3 27 14 16 16 22 17 34 7 8 -7 13 -18
10 -24 -2 -7 -1 -17 3 -24 6 -10 12 -9 25 4 19 19 20 16 6 -22 -10 -27 -9 -27
6 -8 23 29 16 150 -11 187 -24 33 -26 33 -51 9z"/>
<path d="M3330 6534 c0 -8 5 -12 10 -9 6 3 10 10 10 16 0 5 -4 9 -10 9 -5 0
-10 -7 -10 -16z"/>
<path d="M3166 6491 c-17 -19 -17 -20 2 -30 28 -15 52 13 30 35 -13 13 -16 12
-32 -5z"/>
<path d="M2303 5952 c-98 -35 -170 -99 -220 -195 -24 -46 -27 -63 -28 -152 0
-93 2 -104 32 -160 38 -73 95 -132 165 -171 50 -27 60 -29 168 -29 108 0 118
2 168 29 68 38 136 112 170 184 23 49 27 70 27 148 0 84 -3 96 -35 159 -37 73
-54 88 -63 56 -2 -10 -14 -24 -25 -30 -16 -8 -25 -6 -46 10 -32 25 -31 58 2
75 39 19 37 23 -34 56 -87 41 -200 49 -281 20z m-38 -254 c-9 -18 -20 -41 -26
-51 -12 -22 7 -93 34 -122 10 -11 20 -30 23 -42 4 -13 14 -23 24 -23 10 0 23
-6 29 -14 7 -8 38 -16 74 -19 53 -4 65 -1 84 16 31 27 39 16 17 -22 -14 -24
-16 -33 -6 -43 17 -17 15 -31 -3 -24 -8 3 -15 1 -15 -4 0 -6 5 -10 10 -10 19
0 10 -28 -11 -33 -25 -7 -35 14 -19 43 8 15 9 25 2 32 -18 18 -31 -1 -38 -52
-7 -51 -17 -63 -28 -34 -5 13 -9 14 -21 4 -11 -9 -18 -10 -28 -1 -8 6 -17 8
-20 4 -4 -3 -13 -1 -21 6 -11 9 -15 8 -20 -4 -8 -21 -26 -9 -26 17 0 17 -5 19
-26 15 -24 -4 -26 -2 -22 25 3 16 1 31 -4 34 -4 3 -8 0 -8 -6 0 -6 -4 -9 -9
-5 -5 3 -12 1 -16 -5 -14 -23 -27 -9 -22 24 3 22 1 37 -6 40 -9 5 -9 7 1 12
17 8 5 24 -13 17 -10 -3 -15 1 -15 12 0 9 -4 13 -10 10 -5 -3 -10 0 -10 8 0 8
-7 20 -15 27 -28 23 -14 52 32 67 49 17 63 40 30 53 -19 7 -17 9 16 9 32 1 37
4 37 24 0 13 9 27 23 33 36 18 38 16 22 -18z m-145 -62 c0 -2 -7 -6 -15 -10
-8 -3 -15 -1 -15 4 0 6 7 10 15 10 8 0 15 -2 15 -4z m427 -238 c-3 -8 -6 -5
-6 6 -1 11 2 17 5 13 3 -3 4 -12 1 -19z"/>
<path d="M2183 5587 c-32 -14 -29 -29 5 -21 34 8 38 12 26 23 -5 5 -19 4 -31
-2z"/>
<path d="M2242 5475 c-14 -31 -15 -35 -2 -35 15 0 33 41 23 51 -6 6 -14 -1
-21 -16z"/>
<path d="M1571 5540 c1 -24 15 -55 21 -44 2 5 -1 20 -8 34 -8 14 -13 18 -13
10z"/>
<path d="M1597 5483 c-11 -21 9 -113 24 -113 11 0 12 -4 -6 54 -8 26 -12 52
-9 57 3 5 3 9 0 9 -3 0 -7 -3 -9 -7z"/>
<path d="M1632 5430 c0 -14 2 -19 5 -12 2 6 2 18 0 25 -3 6 -5 1 -5 -13z"/>
<path d="M1661 5414 c0 -11 3 -14 6 -6 3 7 2 16 -1 19 -3 4 -6 -2 -5 -13z"/>
<path d="M3215 5359 c-4 -6 -5 -12 -2 -15 2 -3 7 2 10 11 7 17 1 20 -8 4z"/>
<path d="M1644 5313 c13 -27 35 -59 47 -74 13 -14 44 -52 68 -84 25 -32 46
-54 49 -47 2 7 -10 29 -27 51 -17 21 -27 42 -23 46 4 5 1 5 -7 0 -10 -6 -12
-1 -9 21 3 16 3 23 1 17 -7 -21 -33 -14 -45 12 -6 13 -15 22 -20 19 -6 -4 -9
7 -8 22 3 48 1 56 -15 50 -8 -3 -15 -1 -15 4 0 6 -5 10 -10 10 -6 0 1 -21 14
-47z"/>
<path d="M1700 5274 c0 -17 17 -36 24 -26 3 5 -1 15 -9 22 -8 7 -15 9 -15 4z"/>
<path d="M1620 5236 c0 -13 63 -115 102 -164 165 -211 514 -332 825 -287 60 9
140 27 178 40 72 24 160 69 171 87 8 13 10 13 -88 -34 -100 -49 -178 -67 -319
-75 -87 -4 -141 -2 -215 11 -95 17 -209 50 -228 68 -6 4 -17 8 -25 8 -9 0 -51
21 -93 45 -86 51 -184 143 -253 240 -42 58 -55 73 -55 61z"/>
<path d="M1531 5208 c-1 -16 4 -28 9 -28 12 0 12 8 0 35 -8 18 -9 17 -9 -7z"/>
<path d="M1516 5122 c-2 -4 -1 -14 5 -22 7 -13 9 -12 9 2 0 9 6 19 13 21 7 3
6 6 -5 6 -9 1 -19 -3 -22 -7z"/>
<path d="M1820 5109 c0 -17 53 -70 88 -88 12 -7 22 -8 22 -2 0 5 -7 11 -15 15
-25 9 -18 28 8 20 25 -7 23 -5 -17 20 -25 16 -28 16 -23 2 12 -31 -19 -15 -46
24 -11 16 -17 19 -17 9z"/>
<path d="M1507 5050 c-16 -16 -17 -21 -5 -42 7 -12 13 -32 13 -43 0 -12 6 -19
14 -17 7 1 19 -5 26 -15 7 -10 17 -15 21 -10 4 4 -2 21 -14 37 -25 34 -27 41
-8 34 11 -4 26 32 26 66 0 15 -56 7 -73 -10z m63 -10 c0 -5 -4 -10 -10 -10 -5
0 -10 5 -10 10 0 6 5 10 10 10 6 0 10 -4 10 -10z"/>
<path d="M1945 5000 c3 -5 8 -10 11 -10 2 0 4 5 4 10 0 6 -5 10 -11 10 -5 0
-7 -4 -4 -10z"/>
<path d="M656 4915 c-3 -8 -1 -15 4 -15 6 0 10 7 10 15 0 8 -2 15 -4 15 -2 0
-6 -7 -10 -15z"/>
<path d="M1687 4919 c7 -7 15 -10 18 -7 3 3 -2 9 -12 12 -14 6 -15 5 -6 -5z"/>
<path d="M1681 4774 c0 -11 3 -14 6 -6 3 7 2 16 -1 19 -3 4 -6 -2 -5 -13z"/>
<path d="M1650 4770 c0 -5 5 -10 11 -10 5 0 7 5 4 10 -3 6 -8 10 -11 10 -2 0
-4 -4 -4 -10z"/>
<path d="M1670 4730 c0 -5 5 -10 10 -10 6 0 10 5 10 10 0 6 -4 10 -10 10 -5 0
-10 -4 -10 -10z"/>
<path d="M1696 4704 c-3 -12 -4 -29 0 -38 3 -9 1 -23 -5 -30 -10 -11 -8 -16 7
-20 29 -10 53 3 43 22 -5 10 -15 33 -23 52 -14 31 -16 33 -22 14z"/>
<path d="M4242 4616 c-14 -77 -15 -96 -3 -96 6 0 12 21 16 48 3 26 8 62 11 80
9 60 -12 32 -24 -32z"/>
<path d="M1765 4590 c-3 -5 1 -10 9 -10 9 0 16 5 16 10 0 6 -4 10 -9 10 -6 0
-13 -4 -16 -10z"/>
<path d="M4229 4508 c0 -2 -2 -21 -3 -42 -3 -35 -2 -37 10 -21 16 22 19 65 4
65 -5 0 -10 -1 -11 -2z"/>
<path d="M4214 4388 c0 -7 -10 -56 -23 -108 l-23 -95 20 -125 c11 -69 23 -147
27 -175 9 -69 44 -255 50 -266 3 -4 8 -43 11 -86 6 -91 9 -96 35 -82 11 5 30
9 42 7 12 -2 29 4 38 12 14 13 14 19 2 42 -7 15 -10 33 -8 41 3 7 -1 27 -10
43 -8 16 -15 38 -15 50 0 11 -4 24 -9 30 -5 5 -11 31 -15 57 -3 27 -9 54 -15
60 -5 7 -9 23 -9 37 0 33 -9 88 -18 101 -4 6 -9 48 -11 93 -2 44 -9 86 -15 93
-5 7 -11 38 -13 70 -2 32 -8 71 -15 87 -6 16 -8 36 -5 44 7 19 -5 82 -15 82
-4 0 -7 -6 -6 -12z"/>
<path d="M4076 4151 c-4 -7 -5 -15 -2 -18 9 -9 19 4 14 18 -4 11 -6 11 -12 0z"/>
<path d="M4102 4090 c0 -14 2 -19 5 -12 2 6 2 18 0 25 -3 6 -5 1 -5 -13z"/>
<path d="M4051 4011 c-8 -6 -9 -11 -3 -15 6 -3 14 -1 17 5 9 14 2 20 -14 10z"/>
<path d="M4000 3981 c0 -5 -2 -15 -5 -23 -4 -9 3 -14 21 -16 20 -1 25 2 20 14
-3 9 -6 20 -6 25 0 5 -7 9 -15 9 -8 0 -15 -4 -15 -9z"/>
<path d="M3902 3918 c6 -18 25 -20 31 -3 5 10 0 15 -14 15 -12 0 -19 -5 -17
-12z"/>
<path d="M3940 3880 c0 -11 5 -20 10 -20 6 0 10 9 10 20 0 11 -4 20 -10 20 -5
0 -10 -9 -10 -20z"/>
<path d="M3880 3880 c0 -5 4 -10 9 -10 6 0 13 5 16 10 3 6 -1 10 -9 10 -9 0
-16 -4 -16 -10z"/>
<path d="M3970 3867 c0 -29 36 -75 42 -55 5 15 -23 77 -34 78 -5 0 -8 -11 -8
-23z"/>
<path d="M2830 3710 c0 -5 4 -10 9 -10 6 0 13 5 16 10 3 6 -1 10 -9 10 -9 0
-16 -4 -16 -10z"/>
<path d="M2158 3699 c15 -16 159 -23 168 -8 3 5 -28 9 -70 9 -41 0 -83 3 -93
6 -15 6 -16 5 -5 -7z"/>
<path d="M4310 3239 c0 -5 5 -7 10 -4 6 3 10 8 10 11 0 2 -4 4 -10 4 -5 0 -10
-5 -10 -11z"/>
<path d="M4290 3143 c0 -5 7 -17 15 -27 19 -26 19 -32 -4 -55 -17 -17 -17 -21
-3 -52 l15 -34 8 60 c4 32 12 61 18 63 7 2 1 14 -14 28 -27 25 -35 29 -35 17z"/>
<path d="M4298 2964 c-3 -5 -4 -20 -3 -34 2 -14 4 -32 4 -40 1 -10 4 -11 9 -4
4 6 15 13 25 17 9 3 17 14 17 23 0 10 -5 14 -15 10 -10 -4 -19 2 -24 16 -4 12
-10 17 -13 12z"/>
<path d="M4307 2863 c-3 -5 -5 -34 -4 -66 1 -59 13 -72 34 -38 10 15 9 20 -2
25 -16 6 -20 42 -6 48 5 2 4 11 -4 21 -7 10 -15 14 -18 10z"/>
<path d="M4491 2854 c0 -11 3 -14 6 -6 3 7 2 16 -1 19 -3 4 -6 -2 -5 -13z"/>
<path d="M678 2783 c7 -3 16 -2 19 1 4 3 -2 6 -13 5 -11 0 -14 -3 -6 -6z"/>
<path d="M4314 2716 c-3 -8 -4 -23 -2 -33 3 -11 6 -6 9 15 6 34 2 42 -7 18z"/>
<path d="M3227 2584 c-4 -24 -1 -44 8 -58 13 -17 15 -18 15 -3 0 9 -5 17 -11
17 -7 0 -9 8 -5 20 3 11 9 29 12 40 4 11 2 20 -4 20 -5 0 -12 -16 -15 -36z"/>
<path d="M3284 2562 c4 -7 2 -12 -3 -12 -15 0 -14 -47 1 -56 8 -5 9 -2 5 10
-5 14 -3 17 8 12 17 -6 21 9 5 19 -6 4 -8 10 -5 15 3 5 0 12 -6 16 -8 4 -9 3
-5 -4z"/>
<path d="M3267 2479 c7 -7 15 -10 18 -7 3 3 -2 9 -12 12 -14 6 -15 5 -6 -5z"/>
<path d="M3270 2451 c-8 -6 -17 -8 -21 -5 -4 2 -4 -9 1 -26 5 -16 5 -30 0 -30
-4 0 -11 -42 -15 -92 -4 -51 -11 -97 -15 -103 -5 -5 -10 -32 -12 -60 -3 -27
-10 -61 -16 -75 -7 -14 -18 -122 -27 -240 -13 -198 -30 -334 -55 -435 -5 -22
-17 -82 -26 -133 -10 -52 -24 -101 -32 -109 -13 -13 -13 -16 -1 -24 12 -8 12
-11 -1 -22 -8 -6 -14 -22 -12 -35 2 -13 -1 -28 -6 -35 -6 -7 -13 -29 -17 -50
-7 -34 -4 -42 21 -68 16 -17 55 -44 87 -61 36 -20 53 -34 46 -39 -8 -5 -2 -16
19 -37 25 -24 30 -36 26 -61 -3 -17 -1 -31 5 -31 5 0 13 -21 17 -47 5 -34 16
-56 41 -80 18 -19 31 -38 28 -44 -4 -5 1 -9 11 -9 9 0 33 -9 53 -19 73 -38
108 -50 184 -60 88 -12 211 -14 281 -5 40 6 44 8 29 19 -15 11 -15 13 5 19 12
4 22 11 22 16 0 5 14 16 30 25 17 9 30 22 30 30 0 8 5 15 11 15 20 0 58 47 46
59 -6 6 3 15 28 25 21 9 42 16 47 16 6 0 4 8 -3 17 -13 15 -12 16 9 11 22 -6
30 6 12 17 -8 5 -7 12 2 23 11 13 10 15 -9 10 -13 -4 -23 -2 -23 3 0 10 33 19
70 21 42 1 94 19 117 41 21 19 21 21 5 33 -9 7 -13 16 -8 21 5 4 11 2 13 -4 3
-7 9 -13 14 -13 13 0 -19 47 -63 95 -25 25 -38 48 -38 66 0 15 -3 35 -7 44 -5
14 -2 16 15 11 17 -6 21 -4 16 8 -9 23 -21 20 -50 -11 -26 -28 -28 -59 -9
-135 6 -22 4 -28 -9 -28 -11 0 -14 5 -10 12 5 7 2 9 -9 5 -16 -6 -16 -6 -17
65 0 20 -7 42 -15 48 -8 7 -15 18 -15 24 0 6 -16 28 -35 49 -19 20 -32 44 -29
51 6 15 -56 41 -79 33 -6 -2 -30 2 -51 10 -22 7 -40 12 -42 10 -2 -1 29 -36
68 -77 l70 -75 -36 -9 c-21 -4 -44 -19 -53 -32 -8 -13 -20 -24 -26 -24 -7 0
-7 4 1 12 19 19 14 37 -9 31 -32 -9 -66 15 -73 52 -4 20 -20 45 -41 64 -19 17
-35 37 -35 46 0 9 -9 15 -21 15 -11 0 -28 8 -37 17 -16 16 -17 16 -20 0 -2 -9
-12 -17 -23 -17 -11 0 -17 -4 -14 -10 3 -5 0 -10 -8 -10 -8 0 -20 -7 -28 -16
-7 -9 -21 -13 -34 -10 -40 10 -34 -6 31 -80 67 -77 76 -92 46 -73 -32 20 -107
2 -136 -32 l-25 -29 24 -43 c29 -49 30 -57 11 -57 -7 0 -20 15 -27 33 -14 33
-15 37 -17 74 -2 17 -6 21 -19 16 -10 -4 -14 -2 -10 4 7 11 -13 23 -40 23 -21
0 -39 -22 -37 -47 1 -13 -3 -23 -8 -23 -4 0 -6 -11 -2 -24 3 -14 1 -27 -6 -31
-9 -6 -9 -10 1 -17 11 -8 11 -9 -1 -5 -9 2 -14 14 -12 28 1 18 0 20 -7 10 -8
-12 -12 -13 -25 -1 -9 7 -14 15 -11 18 3 3 -1 12 -8 20 -10 13 -8 14 13 7 21
-7 23 -6 12 7 -7 10 -10 31 -7 57 6 45 -1 53 -15 19 l-9 -23 0 22 c-1 12 -4
30 -8 40 -6 16 -5 17 12 3 17 -14 18 -13 12 3 -3 9 -2 17 4 17 16 0 -1 42 -27
67 -15 14 -25 17 -28 10 -7 -17 -7 69 0 87 3 8 11 14 17 12 7 -1 9 -1 5 1 -5
3 -8 17 -8 31 0 15 -9 42 -20 60 -16 26 -17 32 -5 32 9 0 15 10 15 25 0 24 2
24 53 20 58 -5 93 8 67 25 -11 7 -11 10 -2 10 7 0 15 -7 18 -15 8 -21 26 -19
23 3 -2 9 2 27 9 38 6 12 9 23 7 26 -3 2 2 67 10 144 8 76 17 216 20 309 3 94
10 190 15 215 5 25 14 66 20 92 13 60 13 71 -2 62 -7 -4 -23 -8 -36 -9 -18 0
-25 6 -29 28 -3 16 -16 35 -29 44 -13 8 -24 24 -24 35 0 10 -4 17 -9 14 -5 -3
-14 1 -21 9 -10 12 -9 15 4 15 9 0 16 5 16 10 0 12 -20 13 -40 1z m760 -1513
c12 -29 20 -69 20 -105 0 -33 5 -64 11 -70 9 -9 8 -16 -4 -27 -14 -15 -18 -11
-42 37 -15 28 -35 66 -46 83 -10 17 -21 56 -24 87 -4 47 -2 56 13 59 28 6 50
-13 72 -64z m-454 14 c6 -4 19 -23 29 -42 19 -35 19 -35 25 -10 7 23 8 22 15
-13 5 -24 3 -42 -4 -51 -7 -8 -15 -33 -19 -57 -4 -23 -13 -44 -19 -46 -7 -3
-28 29 -49 74 -20 43 -43 85 -50 94 -26 29 37 74 72 51z m286 -37 c-3 -24 2
-42 18 -62 26 -33 8 -46 -21 -15 -27 29 -26 112 1 112 3 0 4 -16 2 -35z m-212
-205 c0 -12 -44 -24 -62 -17 -8 3 -4 9 12 15 32 14 50 14 50 2z m190 -270 c0
-5 -6 -10 -14 -10 -8 0 -18 5 -21 10 -3 6 3 10 14 10 12 0 21 -4 21 -10z"/>
<path d="M4312 2440 c0 -14 2 -19 5 -12 2 6 2 18 0 25 -3 6 -5 1 -5 -13z"/>
<path d="M4501 2384 c0 -11 3 -14 6 -6 3 7 2 16 -1 19 -3 4 -6 -2 -5 -13z"/>
<path d="M710 2230 c0 -5 5 -10 10 -10 6 0 10 5 10 10 0 6 -4 10 -10 10 -5 0
-10 -4 -10 -10z"/>
<path d="M863 2044 c-36 -41 -30 -68 21 -94 16 -8 39 -31 51 -50 12 -19 30
-41 39 -49 9 -7 16 -26 16 -41 0 -40 80 -126 131 -141 21 -7 42 -9 45 -6 11
10 -37 69 -52 63 -19 -7 -82 77 -90 121 -7 35 -58 138 -75 148 -5 4 -9 14 -9
24 0 18 -29 51 -46 51 -5 0 -19 -12 -31 -26z"/>
<path d="M1620 1990 c0 -5 5 -10 11 -10 5 0 7 5 4 10 -3 6 -8 10 -11 10 -2 0
-4 -4 -4 -10z"/>
<path d="M4600 1971 c0 -5 5 -13 10 -16 6 -3 10 -2 10 4 0 5 -4 13 -10 16 -5
3 -10 2 -10 -4z"/>
<path d="M4290 1960 c0 -5 4 -10 10 -10 19 0 -2 -29 -23 -32 -15 -2 -21 -9
-19 -20 2 -10 -2 -18 -8 -18 -5 0 -10 -12 -10 -27 l0 -28 -25 29 c-14 16 -25
24 -25 18 0 -7 -3 -11 -7 -9 -5 1 -8 -2 -8 -8 0 -5 3 -9 8 -7 13 4 8 -19 -8
-34 -23 -23 -19 -99 7 -146 19 -33 20 -40 8 -48 -15 -9 -7 -44 33 -140 5 -14
9 -32 8 -41 -1 -9 10 -26 24 -37 27 -22 55 -20 55 3 0 7 3 20 6 29 5 12 -2 18
-24 22 -35 7 -51 33 -27 46 26 15 45 65 45 118 0 27 -4 50 -10 50 -12 0 -13
47 -2 54 5 3 21 -8 36 -23 26 -27 27 -32 21 -92 -4 -35 -8 -95 -10 -133 -1
-45 -7 -73 -16 -80 -14 -11 -32 -43 -43 -79 -5 -14 -15 -18 -43 -17 -65 3 -66
3 -59 -32 11 -55 22 -60 100 -53 95 10 113 18 133 60 11 23 26 38 43 42 14 3
50 28 82 55 61 53 58 44 74 212 5 54 12 74 29 90 38 35 65 89 65 129 0 20 -4
37 -10 37 -5 0 -10 -4 -10 -10 0 -5 -7 -10 -15 -10 -8 0 -15 9 -15 20 0 11 7
23 15 26 18 7 19 43 1 66 -12 17 -14 17 -27 0 -8 -9 -22 -34 -32 -55 -15 -34
-15 -41 -1 -82 8 -25 12 -55 9 -65 -8 -24 -38 -26 -59 -5 -21 22 -29 19 -50
-19 -10 -20 -24 -32 -31 -30 -7 3 -16 1 -20 -5 -3 -6 1 -11 9 -11 16 0 21 -12
10 -23 -8 -8 -34 3 -34 14 0 6 -9 19 -20 31 -11 12 -20 29 -20 38 0 9 -5 21
-12 28 -9 9 -8 13 3 17 10 4 14 22 13 60 0 58 -19 86 -77 112 -15 7 -27 17
-27 23 0 5 -4 10 -10 10 -5 0 -10 -4 -10 -10z m373 -51 c-4 -15 -9 -17 -17 -9
-8 8 -7 13 4 20 8 5 16 10 17 10 0 0 -1 -9 -4 -21z m-232 -376 c-12 -20 -14
-14 -5 12 4 9 9 14 11 11 3 -2 0 -13 -6 -23z m29 -62 c0 -21 -6 -32 -20 -36
-11 -3 -20 -11 -20 -16 0 -5 -4 -9 -8 -9 -4 0 -9 18 -10 39 -3 41 -4 40 51 50
4 0 7 -12 7 -28z"/>
<path d="M1637 1779 c7 -9 10 -19 6 -22 -3 -4 -1 -7 5 -7 17 0 15 16 -5 31
-16 12 -17 12 -6 -2z"/>
<path d="M3289 1294 c-11 -14 -9 -19 11 -35 14 -10 19 -19 13 -19 -18 0 -16
-30 1 -30 8 0 16 5 18 12 3 7 12 4 26 -10 13 -13 27 -20 32 -17 6 4 10 1 10
-4 0 -6 -6 -11 -12 -12 -7 0 -22 -2 -33 -4 -10 -2 -25 1 -32 7 -17 14 -17 0 0
-16 7 -7 17 -11 24 -9 7 3 9 -3 6 -15 -3 -14 0 -19 14 -18 31 4 113 45 119 61
7 18 41 20 46 3 5 -15 28 -1 28 17 0 8 -17 16 -42 20 -24 4 -52 15 -63 25 -27
23 -109 55 -99 38 5 -7 -4 -5 -19 5 -32 21 -31 21 -48 1z"/>
<path d="M1348 1183 c-10 -2 -18 -9 -18 -14 0 -11 39 -2 55 12 9 9 -6 10 -37
2z"/>
<path d="M3260 1170 c0 -11 5 -20 10 -20 6 0 10 5 10 11 0 5 5 7 10 4 6 -3 10
1 10 9 0 9 -9 16 -20 16 -13 0 -20 -7 -20 -20z"/>
<path d="M1465 1170 c-3 -5 1 -10 10 -10 9 0 13 5 10 10 -3 6 -8 10 -10 10 -2
0 -7 -4 -10 -10z"/>
<path d="M1210 1155 c-10 -12 -10 -19 -2 -27 15 -15 48 14 38 31 -10 15 -21
14 -36 -4z"/>
<path d="M3303 1133 c-7 -3 -13 -14 -13 -25 0 -17 3 -18 15 -8 8 6 20 8 27 4
9 -5 8 -2 -2 12 -8 10 -14 20 -15 20 0 1 -6 -1 -12 -3z"/>
<path d="M3355 1080 c-3 -5 -1 -10 4 -10 6 0 11 5 11 10 0 6 -2 10 -4 10 -3 0
-8 -4 -11 -10z"/>
<path d="M875 1050 c-23 -25 -12 -39 13 -17 10 10 24 17 31 17 7 0 9 5 6 10
-10 16 -30 12 -50 -10z"/>
</g>
</svg>
